<?xml version="1.0" standalone="no"?>
<!DOCTYPE svg PUBLIC "-//W3C//DTD SVG 20010904//EN"
 "http://www.w3.org/TR/2001/REC-SVG-20010904/DTD/svg10.dtd">
<svg version="1.0" xmlns="http://www.w3.org/2000/svg"
 width="300.000000pt" height="313.000000pt" viewBox="0 0 300.000000 313.000000"
 preserveAspectRatio="xMidYMid meet">
<metadata>
Created by potrace 1.10, written by Peter Selinger 2001-2011
</metadata>
<g transform="translate(0.000000,313.000000) scale(0.100000,-0.100000)"
fill="#000000" stroke="none">
<path d="M2046 3000 c-182 -22 -328 -77 -483 -183 -67 -45 -91 -66 -86 -77 3
-8 8 -30 11 -47 5 -40 -11 -43 -46 -10 l-24 22 -25 -30 c-88 -106 -154 -233
-174 -340 -15 -78 -14 -195 3 -235 l15 -35 22 44 c32 62 94 151 129 184 l29
28 -13 57 c-21 93 -22 162 -2 175 26 17 38 -1 54 -79 20 -95 30 -103 64 -55
16 21 49 56 73 76 42 35 44 40 36 68 -10 36 -2 159 13 200 8 20 17 27 32 25
20 -3 21 -9 21 -95 0 -50 5 -96 10 -102 7 -7 26 3 60 29 112 86 379 206 397
178 17 -28 -2 -44 -117 -103 -131 -66 -205 -110 -205 -124 0 -14 52 -32 131
-45 63 -10 74 -15 77 -33 4 -30 -26 -37 -96 -23 -89 18 -121 30 -137 53 -13
18 -17 19 -38 8 -41 -22 -142 -114 -142 -129 0 -18 84 -50 136 -51 19 -1 43
-7 53 -14 29 -21 5 -57 -38 -57 -49 0 -154 35 -181 60 -34 32 -49 22 -173
-128 -28 -35 -52 -67 -52 -71 0 -4 -39 -48 -88 -97 l-87 -89 -38 18 c-140 66
-311 100 -475 95 -172 -5 -187 -13 -195 -104 -8 -80 -25 -104 -76 -104 -55 0
-81 -10 -81 -31 0 -36 -66 -283 -217 -808 -46 -161 -81 -301 -78 -311 9 -29
33 -31 78 -9 131 67 279 94 471 86 157 -6 264 -34 401 -103 150 -76 217 -132
297 -249 44 -64 65 -85 108 -107 63 -33 126 -36 185 -9 51 23 71 44 138 134
175 236 502 367 839 336 120 -11 220 -36 312 -79 109 -49 121 -28 72 127 -45
142 -111 371 -180 618 -81 293 -96 352 -96 375 0 20 -4 22 -90 37 l-45 8 -8
70 c-5 39 -12 77 -16 85 -15 28 -99 41 -241 37 -145 -5 -255 -30 -433 -99 -77
-30 -242 -132 -299 -185 l-26 -25 -79 55 c-43 30 -95 63 -115 73 -44 20 -45
26 -18 61 11 14 20 32 20 40 0 17 30 28 100 37 104 13 299 73 332 103 9 8 14
21 11 29 -3 8 1 16 8 18 8 2 36 9 63 15 93 22 236 130 222 166 -3 9 -15 19
-26 22 -38 10 -14 27 53 38 77 13 93 27 172 156 81 133 153 360 126 393 -26
31 -211 51 -335 36z m267 -48 c23 -10 27 -17 27 -51 0 -117 -154 -413 -229
-439 -29 -10 -30 -10 -29 19 1 42 -27 67 -91 79 -30 6 -57 12 -60 15 -10 10
25 34 125 84 55 28 110 62 123 75 28 30 25 63 -10 89 -24 17 -31 18 -65 7 -72
-22 -189 -72 -224 -96 -19 -13 -38 -24 -43 -24 -4 0 -25 -11 -45 -25 -53 -36
-59 -33 -54 24 5 59 -7 83 -49 104 l-32 15 49 31 c58 36 179 76 284 95 88 16
283 14 323 -2z m-699 -169 c-14 -22 -19 -53 -22 -135 l-4 -106 -38 -37 c-21
-21 -43 -35 -48 -31 -5 3 -13 21 -16 39 -8 45 -47 81 -80 75 -31 -6 -32 -1 -7
31 15 20 24 23 50 18 43 -9 81 27 81 75 0 34 11 48 66 80 38 23 39 23 18 -9z
m-253 -371 l12 -79 -52 -63 c-28 -35 -51 -68 -51 -72 0 -4 -7 -8 -16 -8 -14 0
-15 8 -9 58 10 84 33 169 62 226 31 61 38 52 54 -62z m505 43 c42 -14 85 -25
95 -25 10 0 20 -10 24 -22 3 -13 11 -33 17 -45 9 -18 8 -27 -7 -43 -26 -29
-132 -86 -185 -100 -30 -8 -57 -24 -80 -50 -27 -28 -53 -43 -104 -59 -93 -29
-234 -57 -242 -48 -16 16 161 237 190 237 7 0 40 -11 74 -24 35 -14 85 -28
113 -31 47 -6 54 -4 80 21 16 15 29 36 29 45 0 33 -42 66 -102 78 -32 7 -60
17 -64 22 -7 12 53 69 72 69 8 0 48 -11 90 -25z m-1191 -435 c-46 -12 -103
-12 -85 0 8 5 38 9 65 9 44 -1 46 -2 20 -9z m342 -36 c35 -7 70 -22 77 -33 7
-11 -122 33 -133 45 -3 4 3 4 14 0 11 -4 30 -10 42 -12z m-71 -33 c38 -11 103
-32 143 -47 64 -24 72 -29 66 -48 -57 -198 -56 -236 8 -236 51 0 68 26 77 115
4 42 10 78 13 82 8 7 43 -15 134 -86 l72 -56 0 -442 c1 -244 -2 -443 -6 -443
-5 0 -19 16 -32 36 -79 115 -363 298 -561 362 -158 51 -190 56 -358 57 l-162
0 6 45 c7 47 17 87 57 235 13 50 36 134 51 188 25 95 72 236 80 244 28 28 307
24 412 -6z m1498 21 l38 -7 39 -140 c51 -186 149 -544 156 -574 5 -22 4 -23
-23 -17 -76 17 -193 18 -299 1 -144 -22 -258 -61 -416 -141 -103 -52 -147 -82
-221 -148 -51 -46 -106 -98 -122 -115 -17 -17 -33 -31 -38 -31 -4 0 -8 196 -8
435 l0 435 41 38 c138 125 337 222 529 257 81 14 260 18 324 7z m-1241 -37
c40 0 47 -3 47 -19 0 -11 12 -33 28 -49 l27 -29 -26 7 c-38 9 -66 -24 -74 -89
-11 -76 -22 -101 -40 -86 -7 6 -12 17 -10 23 2 7 11 46 20 88 16 70 16 78 1
107 -9 17 -25 33 -36 37 -11 3 -20 11 -20 17 0 6 7 7 18 2 9 -5 38 -9 65 -9z
m1419 -122 c10 -9 18 -24 18 -34 0 -10 4 -28 9 -41 5 -13 18 -57 29 -98 48
-180 85 -315 143 -515 16 -55 37 -125 45 -155 9 -30 27 -89 40 -130 13 -41 24
-81 24 -88 0 -17 -16 -14 -131 26 -225 79 -508 71 -726 -21 -168 -71 -301
-168 -373 -273 -75 -110 -122 -144 -199 -144 -73 0 -146 50 -184 125 -16 31
-119 145 -132 145 -6 0 -22 12 -81 59 -36 29 -232 113 -309 132 -75 19 -117
23 -255 23 -178 1 -259 -14 -386 -67 -33 -14 -62 -23 -66 -21 -7 4 3 44 47
189 15 50 31 104 35 120 5 17 15 55 24 85 9 30 24 87 35 125 11 39 33 120 51
180 17 61 45 164 61 230 36 143 38 147 72 152 32 4 32 2 11 -74 -9 -32 -28
-108 -44 -169 -15 -62 -31 -117 -34 -123 -7 -10 -36 -164 -36 -188 0 -23 40
-53 70 -53 28 0 44 -16 18 -17 -24 -2 -83 -27 -114 -50 -26 -18 -34 -34 -48
-94 -21 -95 -20 -106 9 -133 27 -25 32 -26 160 -7 305 45 661 -68 877 -277 32
-31 60 -67 63 -82 8 -35 59 -96 97 -116 39 -20 102 -20 132 0 43 27 84 79 90
110 8 40 81 117 172 182 91 65 274 143 397 170 118 25 295 29 416 9 l103 -17
26 26 c25 25 26 28 14 73 -7 27 -22 72 -33 100 -19 47 -27 56 -77 80 l-56 27
33 8 c52 14 56 39 26 151 -14 54 -39 150 -56 215 -17 64 -38 143 -46 174 -22
81 -5 111 39 71z m-1174 -53 c58 -35 67 -36 107 -10 37 24 58 26 29 2 -12 -9
-35 -36 -51 -59 l-30 -41 -16 28 c-10 16 -35 43 -57 60 -35 28 -51 50 -35 50
3 0 27 -13 53 -30z m-694 -584 c16 -3 31 -8 35 -12 9 -9 -81 6 -99 17 -11 7
-8 8 10 4 14 -3 38 -7 54 -9z m-159 -17 c230 -32 484 -141 643 -276 46 -40
163 -183 215 -264 14 -21 27 -29 47 -29 41 0 60 10 60 30 0 18 156 224 207
272 42 40 179 120 290 168 152 67 287 100 411 100 104 0 223 -22 241 -44 11
-14 64 -187 58 -192 -2 -2 -37 4 -78 13 -105 25 -345 24 -454 -1 -219 -51
-449 -172 -551 -292 -30 -35 -53 -54 -63 -51 -9 3 -25 8 -36 12 -12 4 -8 -3
13 -20 17 -14 32 -32 32 -39 0 -8 -21 -33 -46 -56 -42 -39 -50 -42 -86 -37
-51 7 -118 68 -118 107 0 18 -18 44 -62 89 -191 192 -531 323 -803 308 -55 -3
-130 -11 -166 -18 -94 -17 -98 -14 -87 63 17 108 26 120 99 140 110 30 132 32
234 17z m680 -245 c18 -14 61 -52 94 -85 73 -71 92 -75 120 -21 14 26 28 28
35 4 3 -9 15 -23 25 -29 17 -11 25 -9 51 13 43 37 49 22 11 -29 -18 -23 -44
-61 -59 -84 -46 -73 -49 -71 -208 142 -17 23 -51 58 -75 78 -49 42 -45 50 6
11z"/>
<path d="M627 1835 c-21 -20 -21 -29 -1 -49 17 -18 24 -19 136 -35 43 -6 105
-20 138 -31 68 -23 91 -25 108 -8 19 19 14 46 -10 62 -38 24 -192 64 -276 71
-66 6 -81 5 -95 -10z"/>
<path d="M582 1648 c-16 -16 -15 -43 2 -57 8 -6 56 -18 107 -26 168 -25 408
-119 549 -214 49 -33 69 -38 88 -19 22 22 13 46 -30 81 -104 85 -340 187 -518
223 -129 27 -180 30 -198 12z"/>
<path d="M530 1451 c-22 -43 12 -71 88 -71 139 0 481 -133 631 -244 42 -31 67
-33 81 -6 16 31 -1 52 -87 108 -200 127 -495 232 -655 232 -36 0 -50 -4 -58
-19z"/>
<path d="M2231 1838 c-146 -20 -414 -127 -513 -203 -48 -36 -58 -61 -36 -83
19 -19 40 -14 93 23 129 92 403 185 547 185 55 0 78 15 78 49 0 43 -32 49
-169 29z"/>
<path d="M2260 1644 c-164 -35 -349 -108 -485 -190 -95 -57 -112 -77 -97 -109
16 -35 34 -32 105 19 145 103 376 184 599 211 55 7 76 31 58 65 -9 16 -20 20
-63 19 -29 0 -81 -7 -117 -15z"/>
<path d="M2280 1450 c-260 -56 -612 -236 -598 -306 8 -42 33 -38 113 16 163
110 423 205 618 225 49 6 60 11 69 30 26 57 -44 69 -202 35z"/>
<path d="M2367 1119 c-89 -13 -107 -30 -22 -21 145 15 245 4 245 -27 0 -3 -71
-6 -158 -7 -130 0 -168 -4 -222 -21 -36 -11 -78 -24 -95 -28 -59 -13 -286
-124 -330 -160 -17 -14 29 5 107 44 75 38 162 77 195 86 32 10 81 24 108 31
74 21 292 30 376 14 39 -6 73 -9 77 -5 3 3 -4 25 -16 49 -23 42 -25 43 -84 50
-72 7 -104 6 -181 -5z"/>
<path d="M435 1110 c-22 -4 -43 -6 -47 -4 -9 6 -32 -76 -24 -84 4 -3 35 0 70
6 234 43 552 -35 776 -190 77 -53 85 -48 10 8 -107 78 -370 194 -442 194 -14
0 -28 3 -31 7 -4 3 -17 7 -29 9 -13 1 -57 7 -98 12 -41 5 -99 6 -128 2 -29 -3
-55 -3 -57 0 -6 10 49 18 170 27 71 5 91 9 70 14 -41 9 -191 8 -240 -1z"/>
</g>
</svg>
